<?xml version="1.0" standalone="no"?>
<!DOCTYPE svg PUBLIC "-//W3C//DTD SVG 20010904//EN"
 "http://www.w3.org/TR/2001/REC-SVG-20010904/DTD/svg10.dtd">
<svg version="1.0" xmlns="http://www.w3.org/2000/svg"
 width="1778.000000pt" height="1778.000000pt" viewBox="0 0 1778.000000 1778.000000"
 preserveAspectRatio="xMidYMid meet">
<metadata>
Created by potrace 1.11, written by Peter Selinger 2001-2013
</metadata>
<g transform="translate(0.000000,1778.000000) scale(0.100000,-0.100000)"
fill="#000000" stroke="none">
<path d="M7060 17760 c-187 -13 -277 -59 -459 -235 -225 -218 -419 -512 -508
-770 l-38 -110 1 -280 c0 -185 6 -346 18 -475 36 -387 35 -346 4 -393 -36 -54
-44 -112 -29 -219 16 -126 74 -291 162 -468 76 -151 79 -156 120 -171 37 -13
45 -22 57 -59 15 -43 15 -43 -16 -69 -50 -43 -99 -117 -113 -170 -9 -37 -18
-51 -31 -51 -56 0 -158 -162 -158 -251 0 -42 -3 -49 -19 -49 -24 0 -62 -48
-93 -116 -16 -36 -22 -69 -22 -127 -1 -65 -4 -78 -19 -83 -40 -13 -85 -166
-72 -245 6 -35 4 -39 -19 -45 -14 -3 -30 -4 -37 -2 -6 2 -25 49 -41 103 -32
111 -98 258 -149 332 -90 133 -238 237 -375 263 l-62 12 -78 -41 c-82 -42
-194 -124 -194 -141 0 -6 18 -10 41 -10 113 0 284 -64 375 -142 186 -158 304
-452 343 -858 5 -59 4 -87 -3 -92 -6 -4 -93 -8 -193 -8 l-183 0 0 29 c0 33 6
31 -175 51 -133 14 -133 14 -127 -15 4 -22 1 -25 -24 -24 -16 0 -60 8 -99 17
l-70 17 -8 85 c-4 47 -7 163 -5 258 l3 174 -30 -6 c-16 -4 -34 -11 -40 -17
-15 -15 -19 -348 -6 -563 14 -218 32 -386 62 -566 25 -156 25 -157 50 -163 20
-5 20 -3 15 51 -10 89 -36 462 -36 507 l0 41 100 -20 100 -19 0 -44 c0 -23 1
-43 3 -44 1 0 71 -6 156 -13 l153 -12 -4 41 -5 40 194 2 c191 2 193 1 197 -20
3 -12 19 -139 36 -282 17 -143 47 -374 66 -513 l35 -253 -31 -61 c-16 -34 -30
-76 -30 -95 0 -26 -4 -33 -19 -33 -25 0 -112 -79 -136 -124 -11 -19 -28 -36
-40 -38 -20 -3 -21 -12 -13 -62 5 -31 -163 -116 -297 -151 -134 -35 -301 -43
-410 -20 -23 5 -26 4 -15 -4 8 -6 35 -13 60 -17 25 -4 50 -11 57 -16 6 -5 17
-8 25 -7 7 1 49 0 93 -1 80 -2 80 -2 30 -11 -27 -5 -89 -10 -138 -11 l-88 -3
-16 -52 c-9 -29 -14 -56 -10 -59 3 -3 50 -9 104 -13 l98 -7 -65 -7 c-36 -4
-87 -8 -115 -10 l-50 -2 -3 -70 c-6 -120 30 -250 99 -356 l30 -48 79 33 c44
19 114 55 157 80 43 26 71 40 63 32 -14 -15 -261 -161 -284 -169 -15 -5 8 -32
57 -68 37 -27 39 -27 80 -13 23 8 65 28 94 44 29 17 53 29 53 27 0 -2 -30 -25
-67 -52 -38 -27 -70 -50 -72 -52 -2 -2 -2 -6 1 -9 7 -6 163 53 234 89 27 14
73 41 102 60 56 39 72 35 20 -4 -17 -13 -47 -37 -67 -53 -51 -40 -176 -101
-238 -116 -57 -13 -75 -36 -20 -25 259 49 471 212 601 462 15 29 29 58 30 65
2 7 6 20 9 28 3 8 13 38 23 65 10 28 24 54 31 58 15 9 17 44 3 49 -5 2 -7 19
-4 40 6 34 10 38 48 46 l41 8 22 -141 c118 -739 152 -946 204 -1250 33 -192
75 -433 94 -534 19 -102 31 -189 29 -193 -6 -10 -290 -9 -354 0 -36 6 -45 12
-50 31 -5 23 -17 27 -158 56 -84 18 -152 30 -153 26 -1 -3 0 -16 1 -28 2 -29
-2 -29 -132 5 -60 16 -108 26 -108 22 0 -18 59 -213 66 -220 5 -5 58 -22 117
-36 96 -25 107 -30 107 -50 0 -13 5 -26 12 -30 12 -8 261 -54 290 -54 13 0 16
7 12 33 l-6 32 201 1 c111 0 201 -1 201 -2 0 -5 88 -434 95 -461 5 -20 12 -23
53 -23 26 0 85 5 131 11 62 7 86 7 91 -1 4 -6 10 -51 13 -98 4 -48 13 -123 22
-167 l15 -80 -60 -124 c-107 -219 -265 -481 -280 -465 -25 26 -61 196 -71 334
-22 327 -36 409 -92 536 l-32 72 -105 22 c-58 13 -115 25 -127 28 -23 4 -23 3
-23 -97 0 -104 -19 -222 -47 -295 -20 -52 -20 -51 -36 -37 -12 9 -23 -22 -66
-180 -29 -105 -50 -198 -46 -207 4 -9 8 -102 9 -207 3 -250 9 -268 113 -361
120 -107 112 -106 91 -6 -10 48 -23 153 -30 234 -10 131 -10 152 4 181 25 53
110 376 104 395 -7 22 59 218 68 203 4 -5 11 -89 16 -186 13 -238 57 -432 131
-577 l20 -40 -28 -40 c-62 -90 -246 -301 -378 -433 -192 -193 -355 -325 -633
-516 -323 -222 -638 -447 -749 -536 -216 -173 -383 -416 -444 -645 l-13 -46
-80 -21 c-45 -12 -105 -35 -134 -52 -45 -25 -57 -39 -88 -102 -43 -85 -95
-168 -124 -197 -15 -15 -33 -20 -70 -20 -47 0 -52 -2 -81 -42 -40 -55 -115
-210 -131 -270 -11 -42 -9 -60 16 -173 l27 -126 -49 -44 c-67 -61 -158 -181
-207 -275 -22 -42 -59 -108 -82 -146 -54 -89 -88 -191 -79 -238 8 -40 9 -41
35 -24 23 14 51 4 51 -19 0 -10 -11 -36 -24 -57 -22 -36 -23 -43 -11 -77 7
-20 21 -51 29 -68 16 -30 17 -31 41 -15 14 9 32 14 40 10 19 -7 19 -55 0 -83
-13 -19 -12 -26 21 -86 38 -68 53 -77 137 -77 15 0 27 -2 27 -5 0 -2 -12 -29
-27 -59 l-27 -55 29 -66 c25 -59 30 -66 51 -61 22 6 54 -15 54 -35 0 -5 -8
-26 -19 -47 -20 -40 -21 -35 29 -156 l32 -75 24 15 c45 30 70 -23 44 -91 -12
-32 -3 -51 53 -112 36 -39 95 -81 101 -71 1 2 7 15 14 30 6 16 22 30 38 34 35
9 62 -20 72 -76 l7 -45 68 -17 c37 -9 87 -20 110 -23 41 -6 43 -5 57 26 34 75
86 59 114 -33 5 -15 18 -18 93 -18 l89 0 19 43 c17 36 24 42 50 42 24 0 33 -7
47 -35 20 -40 30 -40 151 -13 59 13 68 18 73 41 12 53 15 60 31 66 20 8 39 -8
47 -40 7 -27 19 -27 76 0 31 14 65 95 91 216 10 47 23 105 30 130 27 107 -15
261 -85 315 -40 30 -133 73 -250 114 -50 18 -96 37 -103 43 -7 6 -28 12 -46
14 -87 11 -91 15 -120 129 -15 58 -27 112 -27 120 0 13 29 15 203 16 l202 1
124 129 124 128 -33 51 -33 51 63 232 c35 128 66 239 71 247 5 11 43 21 131
33 149 21 310 60 347 84 15 10 92 88 171 173 356 383 601 604 935 846 17 11
93 108 170 213 76 106 147 197 156 202 20 10 167 210 408 553 148 212 159 231
145 247 -13 14 -13 22 -4 39 7 12 16 18 20 14 13 -13 97 -311 131 -463 35
-156 73 -402 89 -584 15 -162 15 -335 1 -712 -20 -550 -10 -983 25 -1104 34
-117 107 -230 232 -361 l72 -75 0 -183 0 -184 115 -190 c122 -201 123 -204 84
-258 l-17 -26 81 -131 82 -132 63 -7 c34 -3 62 -9 62 -13 0 -3 -20 -148 -45
-321 -84 -584 -85 -590 -95 -940 -5 -183 -7 -336 -4 -341 9 -15 32 -10 38 9 3
9 42 152 87 317 77 286 89 344 124 600 95 692 92 675 111 675 16 0 17 -16 19
-290 1 -188 16 -254 67 -302 36 -34 50 -35 63 -5 13 28 50 34 63 10 6 -10 13
-35 17 -56 7 -34 14 -41 66 -67 32 -17 62 -30 67 -30 4 0 12 15 17 33 19 63
84 30 85 -44 0 -22 7 -29 43 -42 82 -30 84 -30 171 7 46 20 93 36 105 36 20 0
21 -5 21 -89 0 -100 -2 -96 97 -151 l42 -23 23 28 c18 20 30 26 45 21 21 -7
43 -51 43 -86 0 -12 24 -26 81 -48 44 -18 86 -32 92 -32 7 0 20 14 29 30 30
52 78 32 102 -42 10 -31 15 -34 86 -50 113 -24 125 -23 140 13 30 72 90 71
111 -1 l12 -40 98 0 99 0 6 28 c11 48 32 72 63 72 32 0 46 -13 56 -52 8 -31 7
-31 133 4 57 17 72 25 72 40 0 10 7 34 14 53 18 43 48 46 73 8 9 -16 18 -30
20 -32 1 -2 20 7 41 21 33 22 40 34 56 99 14 52 21 123 24 237 4 148 2 170
-18 232 -42 129 -83 160 -343 254 -70 26 -136 50 -145 55 -9 5 -47 16 -84 25
-98 24 -118 33 -118 54 0 21 -30 52 -54 56 -24 3 -96 76 -111 113 -7 17 -24
37 -37 43 -32 17 -118 102 -118 117 0 7 -12 20 -26 30 -51 33 -124 117 -124
143 0 15 -6 32 -12 39 -17 16 -9 21 175 134 l144 89 -34 166 c-18 92 -38 190
-43 218 -10 48 -14 52 -51 64 -22 8 -44 21 -48 29 -4 9 -32 104 -61 211 l-53
195 -58 60 -58 60 -302 1235 c-166 679 -304 1253 -306 1275 -2 22 32 299 77
615 44 316 121 861 170 1210 49 349 162 1150 250 1780 89 629 162 1146 164
1147 2 2 14 -5 27 -15 13 -10 58 -44 100 -75 l76 -56 79 63 c280 222 601 658
844 1146 18 36 69 110 113 165 44 55 84 105 88 110 4 6 -11 37 -33 70 -21 33
-68 118 -102 188 l-62 129 -57 -90 c-176 -277 -448 -551 -769 -772 -43 -30
-80 -52 -83 -49 -2 3 6 56 19 117 13 62 22 112 20 112 -3 0 -133 -68 -290
-151 -157 -83 -287 -150 -289 -148 -2 2 -17 66 -35 141 l-31 138 34 87 c19 49
45 127 57 175 l23 87 -134 140 c-74 78 -137 152 -140 165 -6 20 -1 28 30 48
20 13 36 30 37 38 0 8 10 35 22 60 29 60 30 130 2 137 -29 8 -17 39 30 83 56
52 78 160 45 223 -19 37 -21 91 -4 149 19 67 -1 152 -47 194 -33 31 -33 32
-27 101 3 44 1 84 -7 107 -15 48 -66 106 -92 106 -16 0 -18 4 -12 23 12 36 7
101 -11 143 -19 46 -72 104 -95 104 -14 0 -16 9 -12 53 3 44 -1 62 -30 117
-24 47 -42 69 -66 80 -27 13 -31 19 -26 41 3 15 2 38 -1 52 -6 24 -11 20 -64
-61 -68 -104 -134 -187 -207 -262 l-54 -56 35 -41 c20 -23 45 -45 56 -48 16
-5 19 -12 14 -34 -12 -54 57 -189 109 -212 18 -8 21 -17 18 -49 -5 -51 21
-126 59 -173 27 -33 30 -45 32 -109 2 -57 8 -83 28 -118 24 -43 24 -48 11 -80
-10 -25 -13 -60 -9 -122 2 -49 0 -91 -5 -96 -5 -5 -20 -31 -32 -56 l-23 -47
-90 103 c-131 151 -234 285 -272 353 -79 144 -221 302 -382 427 -80 63 -86 70
-97 119 -14 61 -27 79 -55 79 -11 0 -72 12 -136 26 -268 60 -546 175 -743 306
l-97 65 47 -60 c70 -90 191 -207 288 -280 89 -67 260 -161 350 -192 39 -14 53
-24 62 -47 14 -39 12 -44 -21 -40 -37 4 -57 -13 -57 -49 0 -34 -19 -38 -45 -9
-10 11 -26 20 -35 20 -9 0 -25 -9 -35 -20 -25 -28 -42 -25 -60 10 -17 33 -36
37 -79 15 -37 -20 -43 -19 -49 5 -6 24 -67 53 -81 39 -19 -18 -33 -9 -49 32
-16 41 -16 41 -59 35 -43 -6 -43 -6 -66 36 -12 24 -22 60 -22 81 0 34 -2 37
-27 37 -16 -1 -225 -29 -465 -64 l-438 -62 0 33 c0 21 8 43 21 56 33 35 69
113 76 165 5 39 13 53 49 85 41 36 94 124 94 157 0 13 19 15 152 11 151 -3
254 7 349 35 l48 14 -97 98 c-147 146 -240 281 -317 458 l-34 78 -53 13 c-29
8 -72 29 -97 48 -53 42 -124 133 -117 151 7 18 116 164 122 164 3 0 28 -20 56
-44 84 -73 89 -75 147 -32 104 76 192 194 277 369 55 114 66 128 38 47 -50
-146 -133 -280 -236 -381 -34 -32 -58 -59 -54 -59 21 0 69 37 131 102 69 72
79 84 131 163 54 81 119 266 136 385 l11 80 57 0 c84 0 305 19 480 41 134 16
164 24 225 54 64 31 178 111 302 212 l47 38 -22 -32 c-39 -56 -195 -193 -249
-220 -29 -14 -53 -29 -53 -33 0 -13 89 22 114 45 14 13 27 21 29 19 8 -8 100
67 167 135 63 64 130 152 130 171 0 5 21 30 48 56 59 59 63 47 28 -79 -35
-123 -113 -279 -186 -372 -33 -41 -58 -75 -55 -75 3 0 25 10 48 21 93 48 186
117 268 200 l86 87 39 -81 c46 -95 137 -223 188 -263 41 -33 44 -40 18 -48
-33 -11 -62 -46 -62 -75 0 -42 8 -43 57 -10 24 17 69 41 100 53 l55 23 116
-18 c168 -25 177 -26 174 -11 -3 16 3 15 39 -4 17 -8 28 -21 25 -27 -2 -7 -16
-47 -31 -90 -31 -89 -26 -87 -130 -33 -148 77 -307 11 -395 -165 -36 -71 -70
-194 -70 -253 0 -40 1 -38 50 59 27 55 65 118 84 140 l35 40 -6 -55 c-7 -74
11 -136 52 -177 l33 -33 53 19 c28 11 69 32 91 46 63 42 99 147 79 234 -8 38
-7 42 7 35 10 -4 29 -9 43 -11 l26 -5 -14 -71 c-11 -56 -13 -120 -8 -284 4
-117 10 -213 13 -213 12 0 92 92 87 100 -3 4 2 11 10 14 9 3 20 16 25 28 6 13
14 30 20 38 23 36 50 112 44 122 -4 6 -3 8 3 5 13 -8 41 102 49 193 7 83 6
193 -2 248 -7 49 -6 49 76 27 30 -8 57 -15 59 -15 2 0 1 42 -3 92 -8 106 -37
263 -66 357 -24 82 -12 68 29 -32 37 -90 71 -276 65 -357 -3 -46 -2 -51 7 -30
6 14 9 48 7 75 -1 28 1 56 5 63 5 6 5 17 1 24 -4 6 -7 31 -7 55 1 24 -3 46 -8
49 -5 3 -7 9 -4 14 6 9 -13 86 -40 163 -14 39 -21 48 -36 44 -11 -3 -22 -1
-25 4 -3 5 4 9 16 9 19 0 18 4 -16 68 -20 37 -49 84 -65 105 l-27 39 20 48 20
49 -27 76 c-38 104 -144 320 -198 402 -68 106 -140 178 -211 213 -53 26 -76
47 -142 128 -43 53 -162 180 -264 283 -202 202 -236 225 -415 284 -284 92
-913 159 -1275 135z m1874 -939 c205 -73 270 -216 133 -295 -141 -82 -424 -85
-584 -6 -75 37 -98 71 -90 137 9 82 91 149 220 178 87 20 245 13 321 -14z
m503 -1303 c-1 -5 -16 1 -33 11 -28 17 -31 24 -37 87 -4 38 -7 89 -6 114 0 40
4 32 39 -80 22 -69 39 -128 37 -132z m105 -358 c-2 -47 -15 -126 -28 -177 -12
-50 -21 -100 -20 -110 2 -10 1 -12 -1 -4 -3 7 -21 -20 -40 -60 -31 -64 -87
-151 -70 -109 55 138 70 180 90 251 27 93 56 250 58 313 1 39 2 39 9 11 4 -16
5 -68 2 -115z m-468 17 c14 -22 -3 -51 -33 -55 -16 -3 -21 2 -21 18 0 29 19
62 32 58 7 -3 16 -12 22 -21z m491 -87 c3 -5 1 -10 -4 -10 -6 0 -11 5 -11 10
0 6 2 10 4 10 3 0 8 -4 11 -10z m-2187 -1731 c16 -32 20 -34 65 -32 44 3 47 1
47 -22 0 -19 9 -29 35 -42 32 -15 36 -15 53 0 26 24 38 21 62 -13 24 -34 54
-38 88 -14 21 15 25 14 58 -15 19 -17 39 -31 44 -31 5 0 19 14 32 30 21 30 24
30 80 24 l58 -7 0 41 c0 39 19 72 42 72 5 0 30 -17 54 -39 24 -21 75 -55 114
-75 38 -20 75 -47 81 -58 7 -14 10 -52 6 -104 -8 -139 -56 -209 -165 -240 -78
-23 -183 -14 -299 24 -165 56 -526 249 -628 337 -33 29 -77 63 -98 77 -21 14
-35 28 -30 31 4 3 37 8 71 12 50 6 71 14 97 36 18 16 39 29 47 29 8 0 23 6 34
14 22 17 28 12 52 -35z m1465 -1984 c37 -46 63 -86 59 -89 -10 -5 -114 -36
-124 -36 -4 0 -8 47 -8 105 0 58 2 105 3 105 2 0 34 -38 70 -85z m-767 -100
c-58 -52 -188 -120 -396 -210 -357 -153 -547 -277 -646 -421 -38 -56 -39 -56
-54 -33 -8 12 -22 40 -32 60 l-17 38 36 48 c79 106 191 207 304 274 30 17 140
66 244 109 235 96 383 168 466 229 l64 47 40 -49 39 -50 -48 -42z m1842 -102
c-2 -10 -96 -674 -209 -1475 -182 -1304 -206 -1458 -221 -1458 -10 0 -18 7
-18 15 0 15 396 2845 406 2903 5 23 12 32 26 32 14 0 19 -5 16 -17z m-104
-117 c-8 -67 -22 -84 -151 -174 -45 -31 -82 -60 -83 -64 0 -4 41 -40 90 -80
50 -39 90 -77 90 -83 0 -10 -110 -797 -310 -2215 -44 -311 -127 -902 -185
-1314 -58 -412 -107 -751 -109 -753 -2 -3 -11 22 -20 54 -9 32 -62 198 -118
368 l-103 310 -33 10 c-31 9 -34 15 -62 105 -80 262 -170 585 -195 705 -13 63
-12 76 26 311 21 136 39 248 39 249 0 2 29 19 64 39 118 66 214 173 257 287
l18 47 -64 324 c-35 177 -73 370 -83 428 -19 105 -19 106 1 121 19 15 20 20 8
145 -7 71 -14 148 -18 171 l-5 42 -29 -14 c-27 -15 -29 -14 -33 7 -13 60 -38
296 -43 403 l-5 120 115 67 c63 37 164 103 226 147 l111 80 52 -69 51 -69 61
45 c34 24 120 84 191 133 72 49 157 110 189 135 33 25 61 44 63 42 2 -2 0 -29
-3 -60z m-4741 -303 c-7 -2 -19 -2 -25 0 -7 3 -2 5 12 5 14 0 19 -2 13 -5z
m447 -437 c0 -2 -8 -10 -17 -17 -16 -13 -17 -12 -4 4 13 16 21 21 21 13z
m1881 -1598 c-1 -5 -1 -17 -1 -28 0 -14 -7 -20 -21 -20 -15 0 -19 4 -15 16 3
9 6 22 6 31 0 8 7 13 16 11 8 -2 15 -6 15 -10z m-45 -298 c-8 -69 -12 -80 -28
-80 -16 0 -18 5 -14 33 3 17 8 53 11 80 5 36 10 47 24 47 15 0 16 -7 7 -80z
m-12 -311 c9 -87 8 -99 -8 -99 -20 0 -26 23 -26 96 0 47 4 64 14 64 9 0 15
-20 20 -61z m2133 -66 c-3 -16 -74 -518 -157 -1118 -84 -599 -156 -1093 -159
-1097 -3 -4 -12 -3 -20 1 -10 7 16 217 143 1117 86 610 156 1113 156 1117 0 4
10 7 21 7 18 0 21 -4 16 -27z m-2061 -278 c21 -66 20 -84 -7 -85 -6 0 -49 130
-49 149 0 7 8 11 17 9 10 -2 24 -28 39 -73z m117 -309 c19 -45 25 -72 19 -78
-6 -6 -15 -8 -20 -4 -15 9 -63 136 -56 147 12 20 28 1 57 -65z m134 -297 c18
-40 30 -76 27 -80 -13 -22 -31 -3 -62 63 -25 55 -30 73 -20 80 21 12 21 12 55
-63z m-757 -152 c0 -7 -20 -38 -44 -70 -35 -45 -46 -54 -55 -44 -8 11 0 28 35
75 42 56 64 70 64 39z m888 -167 c19 -77 19 -80 1 -80 -13 0 -21 12 -29 43 -6
23 -15 55 -20 71 -11 31 -6 46 14 46 8 0 21 -31 34 -80z m-1108 -134 c-65 -89
-68 -92 -81 -79 -9 9 -8 18 5 37 34 53 77 95 91 89 12 -4 8 -14 -15 -47z
m1187 -185 c18 -70 19 -81 5 -86 -8 -3 -16 -4 -18 -3 -1 2 -11 38 -22 80 -19
74 -18 84 9 87 4 1 16 -35 26 -78z m-1374 -45 c-4 -6 -27 -35 -51 -64 -35 -41
-48 -50 -58 -41 -11 9 -3 23 39 74 39 48 55 61 64 53 7 -6 10 -15 6 -22z
m1447 -248 c6 -24 15 -57 20 -75 4 -17 5 -34 2 -37 -18 -18 -32 2 -50 74 -19
77 -19 80 -1 80 13 0 21 -12 29 -42z m-1664 6 c2 -5 -20 -35 -49 -67 -44 -49
-55 -57 -65 -45 -9 12 -2 26 39 72 48 53 69 64 75 40z m-226 -247 c0 -7 -24
-36 -53 -65 -42 -41 -55 -50 -65 -40 -10 10 0 24 45 70 53 54 73 63 73 35z
m1974 -114 c16 -73 14 -87 -11 -83 -5 0 -15 34 -24 75 -16 71 -14 81 12 84 3
1 14 -34 23 -76z m-2211 -117 c3 -7 -9 -27 -26 -42 -83 -76 -87 -78 -100 -65
-10 10 0 24 47 67 63 58 71 62 79 40z m3314 -133 c-3 -16 -74 -520 -158 -1120
-138 -984 -155 -1093 -171 -1093 -10 0 -18 5 -18 11 0 6 70 507 155 1113 85
606 155 1105 155 1109 0 4 10 7 21 7 18 0 21 -4 16 -27z m-1042 -25 c30 -133
30 -140 8 -136 -12 2 -21 24 -34 81 -16 74 -16 77 2 77 11 0 21 -9 24 -22z
m-2571 -134 c-47 -41 -62 -50 -73 -41 -11 10 -2 22 50 69 54 49 65 55 73 41 7
-13 -3 -27 -50 -69z m-200 -150 c4 -9 5 -18 4 -19 -2 -1 -29 -22 -61 -48 -55
-44 -78 -51 -76 -24 0 11 107 105 120 106 4 1 10 -6 13 -15z m2856 -156 c0
-18 -5 -28 -15 -28 -8 0 -15 1 -15 3 0 8 -22 124 -26 139 -3 10 2 18 13 20 15
3 20 -7 30 -52 7 -30 12 -67 13 -82z m-3117 -52 c9 -22 -112 -109 -130 -94 -7
6 -12 13 -10 15 13 13 123 93 128 93 4 0 9 -6 12 -14z m3165 -213 c8 -52 9
-80 2 -87 -16 -16 -26 4 -38 79 -9 53 -9 71 1 77 21 13 23 9 35 -69z m-3431
12 c4 -14 -123 -99 -136 -91 -20 13 -11 25 47 65 55 39 82 47 89 26z m-279
-183 c2 -6 -17 -24 -42 -39 -26 -16 -49 -36 -52 -45 -3 -10 -12 -18 -19 -18
-40 0 -15 50 46 90 45 30 60 33 67 12z m3758 -164 c7 -66 6 -84 -4 -86 -19 -5
-19 -5 -31 78 -10 72 -6 89 20 90 4 0 11 -37 15 -82z m-3936 -98 c0 -15 -33
-80 -41 -80 -14 0 -17 29 -6 59 11 29 47 45 47 21z m-289 -80 c23 0 29 -5 29
-21 0 -20 -4 -21 -46 -15 -26 3 -61 6 -78 6 -21 0 -36 7 -45 22 -13 21 -13 21
49 15 35 -4 76 -7 91 -7z m233 -51 c-3 -5 -12 -9 -20 -9 -14 0 -20 31 -7 44 9
9 34 -24 27 -35z m4020 -45 c3 -9 6 -45 6 -80 0 -47 -4 -64 -14 -64 -14 0 -26
60 -26 126 0 36 23 48 34 18z m-4489 -54 c6 -10 -44 -89 -56 -90 -20 0 -16 36
7 66 27 35 39 41 49 24z m4505 -340 c0 -73 -2 -80 -20 -80 -18 0 -20 7 -20 80
0 73 2 80 20 80 18 0 20 -7 20 -80z m37 -322 c22 -73 22 -88 -1 -88 -14 0 -59
137 -50 151 14 23 31 3 51 -63z m161 -284 c38 -41 50 -60 42 -68 -14 -14 -34
-1 -83 57 -34 39 -42 67 -19 67 3 0 30 -25 60 -56z m277 -74 c-1 -14 -70 -519
-155 -1122 -139 -988 -156 -1098 -172 -1098 -10 0 -18 5 -18 11 0 6 70 507
155 1114 85 606 155 1108 155 1114 0 7 8 11 18 9 11 -2 17 -13 17 -28z m-116
-99 c18 -12 -3 -51 -28 -51 -17 0 -18 3 -8 30 12 32 15 34 36 21z m-4660 -347
c29 -13 59 -24 66 -24 6 0 31 14 53 30 42 30 72 39 72 20 0 -5 -3 -10 -7 -10
-5 0 -24 -14 -43 -29 l-35 -29 63 -28 c94 -41 80 -59 -18 -22 l-80 31 -55 -37
c-30 -20 -59 -36 -65 -36 -22 0 -8 19 40 52 l49 35 -69 30 c-39 17 -70 37 -70
43 0 13 22 8 99 -26z m4556 26 c3 -5 -1 -10 -9 -10 -9 0 -16 5 -16 10 0 6 4
10 9 10 6 0 13 -4 16 -10z m31 -90 c20 -44 21 -52 8 -57 -19 -7 -25 0 -49 55
-16 37 -17 45 -5 52 18 11 17 12 46 -50z m-4354 -122 l-22 -23 81 -17 c93 -20
86 -17 91 -42 2 -16 -5 -21 -42 -28 -25 -5 -98 -20 -163 -34 -93 -20 -121 -23
-133 -14 -7 7 -14 15 -14 19 0 3 25 26 56 50 30 24 52 47 47 51 -4 4 -40 12
-78 19 -39 7 -77 16 -85 21 -33 20 5 21 102 2 l103 -19 30 28 c36 35 62 22 27
-13z m4688 -501 c0 -5 -9 -7 -21 -5 -14 2 -32 23 -52 61 -27 48 -30 59 -18 66
12 8 24 -4 53 -52 20 -34 37 -66 38 -70z m980 -152 c-12 -20 -21 -38 -19 -40
2 -2 40 -12 84 -22 55 -13 81 -23 83 -34 3 -15 -2 -15 -47 -3 -28 7 -70 16
-95 19 l-45 7 -25 -51 c-15 -28 -30 -51 -35 -51 -19 0 -18 16 5 61 13 27 23
49 21 49 -9 0 -125 22 -141 27 -18 5 -18 6 -2 15 11 6 41 5 88 -3 78 -14 73
-16 111 52 13 23 21 29 29 21 7 -7 4 -21 -12 -47z m173 -131 c3 -4 -1 -20 -9
-36 -21 -40 -12 -58 28 -58 60 0 108 -12 108 -27 0 -10 -9 -12 -32 -9 -18 3
-58 7 -88 8 l-55 3 -30 -56 c-39 -72 -66 -70 -29 3 14 27 23 52 20 55 -3 3
-40 9 -83 14 -43 4 -79 8 -80 8 -2 1 -3 8 -3 17 0 10 6 14 18 10 9 -2 52 -7
94 -11 l77 -7 23 46 c22 45 29 52 41 40z m160 -160 c3 -3 -3 -26 -14 -51 -11
-25 -17 -48 -14 -51 2 -3 38 -7 79 -10 51 -3 77 -9 80 -18 5 -12 -10 -13 -87
-8 l-93 7 -18 -46 c-12 -32 -22 -44 -31 -40 -12 4 -12 10 0 41 9 19 14 37 12
39 -2 1 -38 6 -80 9 -56 5 -77 11 -77 21 0 11 16 12 88 7 l87 -7 24 57 c22 53
30 63 44 50z m177 -169 c0 -4 -7 -19 -15 -35 l-16 -30 95 0 c71 0 97 -4 106
-15 7 -8 19 -15 26 -15 30 0 12 -19 -38 -40 -110 -47 -191 -71 -199 -58 -6 9
23 24 99 51 58 21 108 40 111 42 2 3 -44 5 -102 5 l-107 0 -17 -35 c-9 -19
-23 -35 -31 -35 -14 0 -13 13 3 53 6 15 -1 17 -74 17 -64 0 -81 3 -81 15 0 12
12 13 64 8 87 -8 112 0 132 42 9 19 23 35 30 35 8 0 14 -2 14 -5z m-1973 -682
c-4 -21 -21 -147 -39 -280 -18 -133 -34 -240 -36 -239 -5 6 17 361 29 464 10
82 14 92 32 92 17 0 19 -5 14 -37z"/>
<path d="M8675 16809 c-133 -20 -221 -72 -246 -146 -10 -31 -9 -39 8 -62 52
-69 185 -105 363 -98 147 6 234 32 279 83 37 42 35 62 -13 112 -82 88 -242
133 -391 111z"/>
<path d="M4145 2485 c-35 -32 -43 -44 -28 -40 12 3 75 17 140 29 l118 23 -40
12 c-22 6 -62 13 -90 16 -48 5 -52 4 -100 -40z"/>
<path d="M7775 15614 c-92 -20 -206 -59 -280 -96 -71 -36 -69 -34 -61 -46 4
-6 41 4 92 25 168 68 372 91 529 58 39 -8 110 -34 158 -59 92 -46 103 -46 95
6 -4 27 -86 80 -163 105 -72 23 -280 27 -370 7z"/>
<path d="M7711 15365 c-35 -8 -100 -27 -145 -42 -91 -30 -183 -36 -210 -13
-24 19 -37 -3 -24 -42 21 -61 127 -78 248 -39 36 12 94 24 129 28 l63 6 -17
-33 c-35 -68 -28 -208 13 -253 19 -21 95 -44 204 -62 77 -12 80 -12 100 9 11
11 31 43 43 69 l23 48 22 -35 c11 -20 29 -58 39 -86 25 -72 31 -72 31 1 -1
232 -135 410 -339 449 -68 13 -101 12 -180 -5z m127 -127 c29 -29 2 -88 -40
-88 -17 0 -19 4 -13 33 14 62 30 78 53 55z"/>
<path d="M8741 14463 c-49 -33 -124 -53 -205 -54 l-71 -1 40 -13 c66 -22 191
-19 242 6 31 15 43 27 43 42 0 40 -13 45 -49 20z"/>
<path d="M7901 14293 c-11 -10 -24 -34 -27 -53 l-5 -35 17 26 c18 29 60 56
102 69 23 7 20 8 -19 9 -31 1 -54 -5 -68 -16z"/>
<path d="M7971 14223 c45 -61 117 -143 153 -176 242 -225 521 -272 630 -106
28 42 66 139 66 168 0 9 16 38 35 66 20 27 32 51 27 53 -4 1 -57 -16 -117 -38
l-109 -40 -176 25 c-194 27 -487 65 -509 65 -11 0 -11 -3 0 -17z m164 -38
c154 -34 461 -85 515 -85 25 0 65 9 89 20 24 11 45 20 46 20 7 0 -13 -57 -33
-95 -24 -48 -67 -90 -105 -104 -124 -47 -417 64 -597 227 -25 23 -40 41 -35
42 6 0 60 -11 120 -25z"/>
<path d="M10967 13657 c-159 -83 -310 -186 -297 -202 5 -6 45 -28 88 -49 69
-33 83 -45 98 -78 10 -21 21 -41 25 -43 4 -3 30 26 58 64 56 75 127 145 157
155 17 5 19 18 21 116 2 60 0 110 -5 110 -4 0 -69 -33 -145 -73z"/>
<path d="M11105 13330 c-44 -45 -102 -98 -130 -117 -27 -20 -56 -43 -62 -52
-21 -24 -15 -88 13 -144 43 -86 41 -86 102 4 78 114 144 184 193 203 23 10 86
20 140 23 80 5 96 8 92 21 -5 12 -21 14 -91 8 -138 -10 -170 -22 -233 -85 -30
-31 -79 -89 -107 -130 -55 -79 -61 -77 -36 10 31 105 127 247 196 289 24 14
26 19 15 34 -11 15 -21 8 -92 -64z"/>
<path d="M11265 13143 c-46 -12 -148 -103 -253 -224 l-22 -26 31 -74 c76 -177
139 -415 139 -523 0 -23 3 -45 6 -49 4 -3 29 3 57 13 28 11 55 16 59 12 10
-10 58 -147 534 -1532 234 -679 471 -1365 526 -1525 55 -159 219 -636 365
-1060 145 -423 309 -900 365 -1060 55 -159 221 -643 370 -1075 148 -432 332
-965 408 -1185 76 -220 269 -782 430 -1250 l293 -850 135 -282 c105 -221 139
-283 153 -283 11 0 19 2 19 3 0 2 -29 143 -65 314 l-64 311 -421 1223 c-232
673 -467 1355 -522 1514 -55 160 -219 637 -365 1060 -145 424 -309 901 -365
1060 -55 160 -221 643 -370 1075 -148 432 -294 855 -323 940 -179 517 -925
2686 -925 2690 0 3 16 14 35 25 42 22 43 2 -17 240 -23 88 -41 170 -42 182 -1
11 -4 19 -8 16 -5 -2 -8 0 -8 5 0 6 6 12 14 15 7 3 16 15 19 26 3 14 1 19 -6
14 -7 -4 -6 1 2 10 7 9 10 17 6 17 -4 0 -1 7 6 17 8 9 12 19 11 22 -2 3 -8 14
-13 24 -8 14 -23 17 -79 17 -81 0 -131 -17 -214 -73 -60 -40 -128 -59 -140
-38 -9 15 157 186 212 218 42 25 47 25 158 19 75 -5 114 -4 114 3 0 5 -3 12
-7 14 -13 7 -216 16 -238 10z m558 -2183 c245 -712 449 -1303 452 -1312 5 -13
2 -18 -12 -18 -17 0 -81 179 -478 1331 -369 1074 -455 1333 -444 1340 10 6 17
1 25 -19 6 -15 212 -610 457 -1322z m861 -2501 c274 -797 345 -1013 335 -1020
-8 -5 -16 -3 -20 4 -4 7 -161 460 -349 1007 -189 547 -345 1001 -347 1008 -3
7 3 12 14 12 16 0 69 -145 367 -1011z m756 -2194 c285 -828 345 -1012 333
-1018 -8 -5 -16 -7 -17 -5 -6 7 -696 2018 -696 2028 0 6 7 10 16 8 11 -2 114
-287 364 -1013z m748 -2174 c189 -550 345 -1007 345 -1018 1 -10 -4 -18 -12
-18 -9 0 -126 326 -361 1010 -192 556 -346 1013 -343 1018 2 4 10 7 16 7 7 0
159 -428 355 -999z m491 -1423 c44 -127 80 -233 78 -235 -4 -4 -160 358 -177
409 -11 36 -8 58 9 58 5 0 45 -104 90 -232z"/>
<path d="M10025 12633 c-90 -10 -189 -25 -200 -29 -10 -4 5 -31 47 -87 l60
-82 -5 -92 -4 -92 51 20 c136 53 306 150 306 174 0 9 20 56 45 105 l45 90
-157 -1 c-87 -1 -171 -4 -188 -6z"/>
<path d="M4944 12345 c-10 -25 3 -315 21 -475 27 -236 68 -454 92 -482 21 -24
98 -54 185 -72 79 -16 334 -22 398 -9 l33 6 -7 121 c-11 222 -87 851 -104 868
-25 25 -202 50 -404 55 -192 5 -208 4 -214 -12z m436 -49 c157 -24 156 -22 64
-96 -105 -84 -192 -140 -219 -140 -26 0 -110 83 -185 183 l-51 67 148 0 c81 0
191 -7 243 -14z m-311 -138 c74 -93 118 -128 157 -128 39 0 110 43 216 129 82
66 88 70 93 49 15 -68 85 -732 85 -808 l0 -48 -93 -7 c-155 -12 -379 27 -426
74 -29 29 -78 315 -100 584 -13 153 -14 255 -3 242 5 -6 37 -45 71 -87z"/>
<path d="M5202 12178 c-26 -26 -8 -88 25 -88 23 0 38 46 25 75 -13 27 -31 32
-50 13z"/>
<path d="M10256 12185 c-59 -35 -111 -66 -114 -69 -13 -14 205 60 221 74 5 4
7 19 5 33 l-3 26 -109 -64z"/>
<path d="M10258 11997 c-48 -28 -86 -52 -85 -54 4 -3 91 23 145 44 33 12 42
21 42 39 0 13 -3 24 -7 23 -5 0 -47 -23 -95 -52z"/>
<path d="M10250 11824 c-82 -49 -78 -54 20 -20 51 17 66 26 68 44 2 12 0 22
-5 21 -4 0 -42 -20 -83 -45z"/>
<path d="M5240 9933 c0 -39 35 -260 61 -384 29 -142 74 -312 115 -442 l35
-107 59 -30 c86 -43 168 -60 299 -60 108 0 241 15 241 28 0 16 -162 957 -165
963 -6 9 -124 37 -210 49 -38 5 -152 10 -252 10 l-183 0 0 -27z m340 -23 c133
-12 230 -29 230 -41 0 -13 -146 -132 -204 -167 -79 -48 -97 -49 -141 -10 -39
34 -175 197 -175 210 0 17 139 21 290 8z m343 -508 l73 -431 -45 -8 c-69 -11
-239 -7 -296 6 -27 7 -76 24 -108 38 l-57 26 -35 111 c-59 190 -110 411 -150
651 l-5 30 27 -35 c15 -19 54 -63 88 -97 54 -55 67 -63 99 -63 20 0 58 11 84
24 48 25 190 135 227 176 11 12 21 17 23 12 1 -5 35 -203 75 -440z"/>
<path d="M5475 9770 c-9 -27 21 -72 43 -68 21 4 28 53 11 74 -17 21 -47 17
-54 -6z"/>
</g>
</svg>
